<mxfile host="app.diagrams.net" agent="Mozilla/5.0 (Windows NT 10.0; Win64; x64; rv:138.0) Gecko/20100101 Firefox/138.0" version="27.0.9">
  <diagram name="Page-1" id="KGhoHDX__mWNUFUTy245">
    <mxGraphModel grid="1" page="1" gridSize="10" guides="1" tooltips="1" connect="1" arrows="1" fold="1" pageScale="1" pageWidth="850" pageHeight="1100" math="0" shadow="0">
      <root>
        <mxCell id="0" />
        <mxCell id="1" parent="0" />
        <mxCell id="Mr1W3ETNhoE6CuoTPUR_-65" value="" style="rounded=1;whiteSpace=wrap;html=1;fillColor=none;dashed=1;dashPattern=8 8;" vertex="1" parent="1">
          <mxGeometry x="180" y="170" width="910" height="640" as="geometry" />
        </mxCell>
        <mxCell id="Mr1W3ETNhoE6CuoTPUR_-25" value="" style="rounded=1;whiteSpace=wrap;html=1;fillColor=#f5f5f5;fontColor=#333333;strokeColor=#666666;" vertex="1" parent="1">
          <mxGeometry x="430" y="600" width="90" height="90" as="geometry" />
        </mxCell>
        <mxCell id="Mr1W3ETNhoE6CuoTPUR_-7" style="edgeStyle=orthogonalEdgeStyle;rounded=0;orthogonalLoop=1;jettySize=auto;html=1;entryX=0.021;entryY=0.627;entryDx=0;entryDy=0;entryPerimeter=0;" edge="1" parent="1">
          <mxGeometry relative="1" as="geometry">
            <mxPoint x="300" y="460" as="targetPoint" />
            <mxPoint x="274" y="460" as="sourcePoint" />
          </mxGeometry>
        </mxCell>
        <mxCell id="Mr1W3ETNhoE6CuoTPUR_-28" style="edgeStyle=orthogonalEdgeStyle;rounded=0;orthogonalLoop=1;jettySize=auto;html=1;entryX=0;entryY=0.5;entryDx=0;entryDy=0;" edge="1" parent="1" target="Mr1W3ETNhoE6CuoTPUR_-22">
          <mxGeometry relative="1" as="geometry">
            <mxPoint x="279" y="580" as="sourcePoint" />
            <mxPoint x="350.02" y="662" as="targetPoint" />
            <Array as="points">
              <mxPoint x="230" y="580" />
              <mxPoint x="230" y="662" />
            </Array>
          </mxGeometry>
        </mxCell>
        <mxCell id="Mr1W3ETNhoE6CuoTPUR_-8" style="edgeStyle=orthogonalEdgeStyle;rounded=0;orthogonalLoop=1;jettySize=auto;html=1;exitX=0.857;exitY=0.389;exitDx=0;exitDy=0;exitPerimeter=0;" edge="1" parent="1" source="Mr1W3ETNhoE6CuoTPUR_-50">
          <mxGeometry relative="1" as="geometry">
            <mxPoint x="202" y="380" as="targetPoint" />
            <mxPoint x="166.00000000000023" y="380" as="sourcePoint" />
            <Array as="points">
              <mxPoint x="151" y="380" />
            </Array>
          </mxGeometry>
        </mxCell>
        <mxCell id="Mr1W3ETNhoE6CuoTPUR_-35" style="edgeStyle=orthogonalEdgeStyle;rounded=0;orthogonalLoop=1;jettySize=auto;html=1;entryX=0;entryY=0.5;entryDx=0;entryDy=0;" edge="1" parent="1" source="Mr1W3ETNhoE6CuoTPUR_-6" target="Mr1W3ETNhoE6CuoTPUR_-31">
          <mxGeometry relative="1" as="geometry" />
        </mxCell>
        <mxCell id="Mr1W3ETNhoE6CuoTPUR_-6" value="&lt;div&gt;ASR Service&lt;/div&gt;&lt;div&gt;&lt;font style=&quot;font-size: 10px;&quot;&gt;(OpenAI Whisper)&lt;/font&gt;&lt;/div&gt;" style="shape=cube;whiteSpace=wrap;html=1;boundedLbl=1;backgroundOutline=1;darkOpacity=0.05;darkOpacity2=0.1;" vertex="1" parent="1">
          <mxGeometry x="400" y="306.5" width="150" height="110" as="geometry" />
        </mxCell>
        <mxCell id="Mr1W3ETNhoE6CuoTPUR_-36" style="edgeStyle=orthogonalEdgeStyle;rounded=0;orthogonalLoop=1;jettySize=auto;html=1;entryX=0;entryY=0.5;entryDx=0;entryDy=0;" edge="1" parent="1" source="Mr1W3ETNhoE6CuoTPUR_-10" target="Mr1W3ETNhoE6CuoTPUR_-31">
          <mxGeometry relative="1" as="geometry" />
        </mxCell>
        <mxCell id="Mr1W3ETNhoE6CuoTPUR_-10" value="&lt;div&gt;Vision Service&lt;/div&gt;&lt;div&gt;&lt;font style=&quot;font-size: 10px;&quot;&gt;&amp;nbsp;(Object detection, OCR, image captioning...)&lt;/font&gt;&lt;/div&gt;" style="shape=cube;whiteSpace=wrap;html=1;boundedLbl=1;backgroundOutline=1;darkOpacity=0.05;darkOpacity2=0.1;" vertex="1" parent="1">
          <mxGeometry x="400" y="430" width="150" height="110" as="geometry" />
        </mxCell>
        <mxCell id="Mr1W3ETNhoE6CuoTPUR_-12" value="" style="sketch=0;outlineConnect=0;fontColor=#232F3E;gradientColor=none;fillColor=#232F3D;strokeColor=none;dashed=0;verticalLabelPosition=bottom;verticalAlign=top;align=center;html=1;fontSize=12;fontStyle=0;aspect=fixed;pointerEvents=1;shape=mxgraph.aws4.multimedia;" vertex="1" parent="1">
          <mxGeometry x="440" y="610" width="32.05" height="30" as="geometry" />
        </mxCell>
        <mxCell id="Mr1W3ETNhoE6CuoTPUR_-13" value="f" style="shape=image;html=1;verticalAlign=top;verticalLabelPosition=bottom;imageAspect=0;aspect=fixed;image=https://cdn3.iconfinder.com/data/icons/essential-pack-2/48/13-Multimedia_File-128.png;fontColor=none;noLabel=1;" vertex="1" parent="1">
          <mxGeometry x="480" y="610" width="30" height="30" as="geometry" />
        </mxCell>
        <mxCell id="Mr1W3ETNhoE6CuoTPUR_-15" value="" style="sketch=0;outlineConnect=0;fontColor=#232F3E;gradientColor=none;fillColor=#232F3D;strokeColor=none;dashed=0;verticalLabelPosition=bottom;verticalAlign=top;align=center;html=1;fontSize=12;fontStyle=0;aspect=fixed;pointerEvents=1;shape=mxgraph.aws4.documents;" vertex="1" parent="1">
          <mxGeometry x="443.71" y="650" width="24.62" height="30" as="geometry" />
        </mxCell>
        <mxCell id="Mr1W3ETNhoE6CuoTPUR_-18" value="" style="sketch=0;outlineConnect=0;fontColor=default;gradientColor=none;fillColor=#ED7100;strokeColor=none;dashed=0;verticalLabelPosition=bottom;verticalAlign=top;align=center;html=1;fontSize=12;fontStyle=0;aspect=fixed;pointerEvents=1;shape=mxgraph.aws4.container_registry_image;" vertex="1" parent="1">
          <mxGeometry x="480" y="650" width="30" height="30" as="geometry" />
        </mxCell>
        <mxCell id="Mr1W3ETNhoE6CuoTPUR_-19" value="&lt;div&gt;&lt;br&gt;&lt;/div&gt;&lt;div&gt;[0.23, 0.456, 0.11....][0.13, 0.356, 0.01....]&lt;/div&gt;&lt;div&gt;....&lt;/div&gt;&lt;div&gt;..&lt;/div&gt;" style="shape=process;whiteSpace=wrap;html=1;backgroundOutline=1;" vertex="1" parent="1">
          <mxGeometry x="550" y="610" width="160" height="90" as="geometry" />
        </mxCell>
        <mxCell id="Mr1W3ETNhoE6CuoTPUR_-20" value="Embeddings generation (all-MiniLM v2/BridgeTower Models)" style="text;html=1;align=center;verticalAlign=middle;resizable=0;points=[];autosize=1;strokeColor=none;fillColor=none;" vertex="1" parent="1">
          <mxGeometry x="475" y="710" width="340" height="30" as="geometry" />
        </mxCell>
        <mxCell id="Mr1W3ETNhoE6CuoTPUR_-21" value="Vector Database" style="shape=cylinder3;whiteSpace=wrap;html=1;boundedLbl=1;backgroundOutline=1;size=15;" vertex="1" parent="1">
          <mxGeometry x="850" y="600" width="70" height="90" as="geometry" />
        </mxCell>
        <mxCell id="Mr1W3ETNhoE6CuoTPUR_-22" value="" style="rounded=1;whiteSpace=wrap;html=1;fillColor=none;dashed=1;" vertex="1" parent="1">
          <mxGeometry x="396.02" y="582" width="423.98" height="160" as="geometry" />
        </mxCell>
        <mxCell id="Mr1W3ETNhoE6CuoTPUR_-23" value="Data Preparation (Static Feed)" style="text;html=1;align=center;verticalAlign=middle;resizable=0;points=[];autosize=1;strokeColor=none;fillColor=none;" vertex="1" parent="1">
          <mxGeometry x="513.01" y="552" width="190" height="30" as="geometry" />
        </mxCell>
        <mxCell id="Mr1W3ETNhoE6CuoTPUR_-24" value="" style="endArrow=classic;html=1;rounded=0;entryX=0;entryY=0.607;entryDx=0;entryDy=0;entryPerimeter=0;" edge="1" parent="1" target="Mr1W3ETNhoE6CuoTPUR_-21">
          <mxGeometry width="50" height="50" relative="1" as="geometry">
            <mxPoint x="710" y="654.66" as="sourcePoint" />
            <mxPoint x="770" y="654.66" as="targetPoint" />
          </mxGeometry>
        </mxCell>
        <mxCell id="Mr1W3ETNhoE6CuoTPUR_-26" value="Multimodal static feed" style="text;html=1;align=center;verticalAlign=middle;resizable=0;points=[];autosize=1;strokeColor=none;fillColor=none;" vertex="1" parent="1">
          <mxGeometry x="410" y="685" width="140" height="30" as="geometry" />
        </mxCell>
        <mxCell id="Mr1W3ETNhoE6CuoTPUR_-27" value="" style="endArrow=classic;html=1;rounded=0;" edge="1" parent="1">
          <mxGeometry width="50" height="50" relative="1" as="geometry">
            <mxPoint x="520" y="654.66" as="sourcePoint" />
            <mxPoint x="550" y="654.66" as="targetPoint" />
          </mxGeometry>
        </mxCell>
        <mxCell id="Mr1W3ETNhoE6CuoTPUR_-30" style="edgeStyle=orthogonalEdgeStyle;rounded=0;orthogonalLoop=1;jettySize=auto;html=1;entryX=0;entryY=0;entryDx=0;entryDy=45;entryPerimeter=0;exitX=0.95;exitY=0.471;exitDx=0;exitDy=0;exitPerimeter=0;" edge="1" parent="1" source="Mr1W3ETNhoE6CuoTPUR_-52" target="Mr1W3ETNhoE6CuoTPUR_-10">
          <mxGeometry relative="1" as="geometry">
            <mxPoint x="359" y="420" as="sourcePoint" />
            <Array as="points">
              <mxPoint x="314" y="410" />
              <mxPoint x="358" y="410" />
              <mxPoint x="358" y="475" />
            </Array>
          </mxGeometry>
        </mxCell>
        <mxCell id="Mr1W3ETNhoE6CuoTPUR_-31" value="" style="shape=image;html=1;verticalAlign=top;verticalLabelPosition=bottom;labelBackgroundColor=#ffffff;imageAspect=0;aspect=fixed;image=https://cdn0.iconfinder.com/data/icons/phosphor-duotone-vol-3/256/robot-duotone-128.png;imageBackground=none;shadow=0;" vertex="1" parent="1">
          <mxGeometry x="710" y="375" width="80" height="80" as="geometry" />
        </mxCell>
        <mxCell id="Mr1W3ETNhoE6CuoTPUR_-33" value="LLM (multimodal capabilities)" style="text;html=1;align=center;verticalAlign=middle;resizable=0;points=[];autosize=1;strokeColor=none;fillColor=none;" vertex="1" parent="1">
          <mxGeometry x="670" y="455" width="180" height="30" as="geometry" />
        </mxCell>
        <mxCell id="Mr1W3ETNhoE6CuoTPUR_-34" value="(LLaMA/Falcon/Mistral 7B/neural-chat-7b-v3-3)" style="text;html=1;align=center;verticalAlign=middle;resizable=0;points=[];autosize=1;strokeColor=none;fillColor=none;" vertex="1" parent="1">
          <mxGeometry x="625" y="480" width="270" height="30" as="geometry" />
        </mxCell>
        <mxCell id="Mr1W3ETNhoE6CuoTPUR_-55" style="edgeStyle=orthogonalEdgeStyle;rounded=0;orthogonalLoop=1;jettySize=auto;html=1;entryX=0.5;entryY=0;entryDx=0;entryDy=0;" edge="1" parent="1" source="Mr1W3ETNhoE6CuoTPUR_-37" target="Mr1W3ETNhoE6CuoTPUR_-49">
          <mxGeometry relative="1" as="geometry">
            <mxPoint x="220" y="190" as="targetPoint" />
            <Array as="points">
              <mxPoint x="940" y="220" />
              <mxPoint x="236" y="220" />
            </Array>
          </mxGeometry>
        </mxCell>
        <mxCell id="Mr1W3ETNhoE6CuoTPUR_-37" value="&lt;div&gt;TTS Service&lt;/div&gt;&lt;div&gt;(SpeechT5)&lt;/div&gt;" style="shape=document;whiteSpace=wrap;html=1;boundedLbl=1;" vertex="1" parent="1">
          <mxGeometry x="880" y="380" width="120" height="80" as="geometry" />
        </mxCell>
        <mxCell id="Mr1W3ETNhoE6CuoTPUR_-38" style="edgeStyle=orthogonalEdgeStyle;rounded=0;orthogonalLoop=1;jettySize=auto;html=1;entryX=0;entryY=0.438;entryDx=0;entryDy=0;entryPerimeter=0;" edge="1" parent="1" source="Mr1W3ETNhoE6CuoTPUR_-31" target="Mr1W3ETNhoE6CuoTPUR_-37">
          <mxGeometry relative="1" as="geometry" />
        </mxCell>
        <mxCell id="Mr1W3ETNhoE6CuoTPUR_-40" value="(Pinecone / Qdrant / Weaviate / FAISS)" style="text;html=1;align=center;verticalAlign=middle;resizable=0;points=[];autosize=1;strokeColor=none;fillColor=none;" vertex="1" parent="1">
          <mxGeometry x="850" y="700" width="230" height="30" as="geometry" />
        </mxCell>
        <mxCell id="Mr1W3ETNhoE6CuoTPUR_-47" value="" style="sketch=0;pointerEvents=1;shadow=0;dashed=0;html=1;strokeColor=none;labelPosition=center;verticalLabelPosition=bottom;verticalAlign=top;align=center;fillColor=#505050;shape=mxgraph.mscae.intune.user_group" vertex="1" parent="1">
          <mxGeometry x="91" y="353" width="50" height="37" as="geometry" />
        </mxCell>
        <mxCell id="Mr1W3ETNhoE6CuoTPUR_-54" style="edgeStyle=orthogonalEdgeStyle;rounded=0;orthogonalLoop=1;jettySize=auto;html=1;entryX=0.003;entryY=0.628;entryDx=0;entryDy=0;entryPerimeter=0;" edge="1" parent="1">
          <mxGeometry relative="1" as="geometry">
            <mxPoint x="201.21000000000004" y="470.46000000000004" as="targetPoint" />
            <mxPoint x="165.99999999999994" y="469.5" as="sourcePoint" />
          </mxGeometry>
        </mxCell>
        <mxCell id="Mr1W3ETNhoE6CuoTPUR_-48" value="Ingest Data" style="rounded=1;whiteSpace=wrap;html=1;" vertex="1" parent="1">
          <mxGeometry x="46" y="440" width="120" height="60" as="geometry" />
        </mxCell>
        <mxCell id="Mr1W3ETNhoE6CuoTPUR_-49" value="&lt;div&gt;nginx-proxy&lt;/div&gt;&lt;div&gt;&lt;br&gt;&lt;/div&gt;&lt;div&gt;(Secure OPEA API gateway)&lt;/div&gt;" style="rounded=0;whiteSpace=wrap;html=1;" vertex="1" parent="1">
          <mxGeometry x="201" y="270" width="70" height="320" as="geometry" />
        </mxCell>
        <mxCell id="Mr1W3ETNhoE6CuoTPUR_-50" value="" style="html=1;verticalLabelPosition=bottom;align=center;labelBackgroundColor=#ffffff;verticalAlign=top;strokeWidth=2;strokeColor=#0080F0;shadow=0;dashed=0;shape=mxgraph.ios7.icons.microphone;" vertex="1" parent="1">
          <mxGeometry x="141" y="370" width="12" height="30" as="geometry" />
        </mxCell>
        <mxCell id="Mr1W3ETNhoE6CuoTPUR_-51" value="" style="verticalLabelPosition=bottom;shadow=0;dashed=0;align=center;html=1;verticalAlign=top;shape=mxgraph.electrical.radio.headphones;pointerEvents=1;" vertex="1" parent="1">
          <mxGeometry x="95.5" y="317" width="41" height="36" as="geometry" />
        </mxCell>
        <mxCell id="Mr1W3ETNhoE6CuoTPUR_-52" value="OPEA-Redis" style="rounded=0;whiteSpace=wrap;html=1;" vertex="1" parent="1">
          <mxGeometry x="276" y="270" width="40" height="320" as="geometry" />
        </mxCell>
        <mxCell id="Mr1W3ETNhoE6CuoTPUR_-56" value="" style="endArrow=classic;html=1;rounded=0;entryX=0.698;entryY=1.024;entryDx=0;entryDy=0;entryPerimeter=0;" edge="1" parent="1" target="Mr1W3ETNhoE6CuoTPUR_-50">
          <mxGeometry width="50" height="50" relative="1" as="geometry">
            <mxPoint x="201" y="400" as="sourcePoint" />
            <mxPoint x="161" y="400" as="targetPoint" />
          </mxGeometry>
        </mxCell>
        <mxCell id="Mr1W3ETNhoE6CuoTPUR_-57" style="edgeStyle=orthogonalEdgeStyle;rounded=0;orthogonalLoop=1;jettySize=auto;html=1;exitX=-0.014;exitY=0.67;exitDx=0;exitDy=0;exitPerimeter=0;" edge="1" parent="1" source="Mr1W3ETNhoE6CuoTPUR_-49">
          <mxGeometry relative="1" as="geometry">
            <mxPoint x="166" y="485" as="targetPoint" />
            <mxPoint x="193" y="485" as="sourcePoint" />
          </mxGeometry>
        </mxCell>
        <mxCell id="Mr1W3ETNhoE6CuoTPUR_-60" style="edgeStyle=orthogonalEdgeStyle;rounded=0;orthogonalLoop=1;jettySize=auto;html=1;entryX=0;entryY=0.486;entryDx=0;entryDy=0;entryPerimeter=0;" edge="1" parent="1" source="Mr1W3ETNhoE6CuoTPUR_-52" target="Mr1W3ETNhoE6CuoTPUR_-6">
          <mxGeometry relative="1" as="geometry" />
        </mxCell>
        <mxCell id="Mr1W3ETNhoE6CuoTPUR_-61" value="" style="rounded=1;whiteSpace=wrap;html=1;fillColor=none;dashed=1;" vertex="1" parent="1">
          <mxGeometry x="375" y="292" width="200" height="260" as="geometry" />
        </mxCell>
        <mxCell id="Mr1W3ETNhoE6CuoTPUR_-62" value="MultimodalQnA Service" style="text;html=1;align=center;verticalAlign=middle;resizable=0;points=[];autosize=1;strokeColor=none;fillColor=none;" vertex="1" parent="1">
          <mxGeometry x="405" y="262" width="150" height="30" as="geometry" />
        </mxCell>
        <mxCell id="Mr1W3ETNhoE6CuoTPUR_-63" value="" style="image;aspect=fixed;html=1;points=[];align=center;fontSize=12;image=img/lib/azure2/general/Power.svg;" vertex="1" parent="1">
          <mxGeometry x="777.06" y="380" width="12.94" height="20" as="geometry" />
        </mxCell>
        <mxCell id="Mr1W3ETNhoE6CuoTPUR_-64" style="edgeStyle=orthogonalEdgeStyle;rounded=0;orthogonalLoop=1;jettySize=auto;html=1;entryX=0.461;entryY=1.039;entryDx=0;entryDy=0;entryPerimeter=0;" edge="1" parent="1" source="Mr1W3ETNhoE6CuoTPUR_-21" target="Mr1W3ETNhoE6CuoTPUR_-34">
          <mxGeometry relative="1" as="geometry" />
        </mxCell>
        <mxCell id="Mr1W3ETNhoE6CuoTPUR_-66" value="Intel Edge Devices / Intel Xeon + optimized for CPU with OpenVINO 🚀" style="text;html=1;align=center;verticalAlign=middle;resizable=0;points=[];autosize=1;strokeColor=none;fillColor=none;" vertex="1" parent="1">
          <mxGeometry x="640" y="780" width="400" height="30" as="geometry" />
        </mxCell>
        <mxCell id="Mr1W3ETNhoE6CuoTPUR_-67" value="&lt;b&gt;&lt;font style=&quot;font-size: 20px;&quot;&gt;✨&lt;/font&gt;&lt;/b&gt;&lt;b&gt;&lt;font style=&quot;font-size: 20px;&quot;&gt;Pyxis 🚀&lt;/font&gt;&lt;/b&gt;" style="text;html=1;align=center;verticalAlign=middle;resizable=0;points=[];autosize=1;strokeColor=none;fillColor=none;" vertex="1" parent="1">
          <mxGeometry x="538.01" y="130" width="140" height="40" as="geometry" />
        </mxCell>
      </root>
    </mxGraphModel>
  </diagram>
</mxfile>
